<svg width="77" height="77" viewBox="0 0 77 77" fill="none" xmlns="http://www.w3.org/2000/svg">
<rect x="1" y="1" width="75" height="75" rx="37.5" stroke="#696A68" stroke-width="2"/>
<path d="M38.0083 15.4045C38.4706 15.8363 39.1359 16.4696 39.943 17.2707C41.5582 18.8739 43.7373 21.1453 45.9933 23.818C50.5404 29.2051 55.2651 36.0677 56.484 42.316C58.325 51.7536 51.7645 61.6643 42.3408 62.8219C40.1478 63.0913 37.9788 63.055 35.7264 62.7137C26.355 61.2938 19.7718 51.6797 21.4856 42.3044C22.597 36.2247 26.8341 29.3527 30.8974 23.9179C32.9147 21.2198 34.8616 18.9114 36.3043 17.2777C37.0097 16.479 37.5936 15.8425 38.0052 15.4016C38.0062 15.4026 38.0072 15.4035 38.0083 15.4045Z" stroke="#696A68" stroke-width="2"/>
<path d="M39 63L38 15" stroke="#696A68" stroke-width="2"/>
</svg>
