<svg width="77" height="77" viewBox="0 0 77 77" fill="none" xmlns="http://www.w3.org/2000/svg">
<rect x="1" y="1" width="75" height="75" rx="37.5" stroke="#696A68" stroke-width="2"/>
<path d="M27.8477 19.2305C26.5977 20.4805 26.5 20.6074 26.5 20.9395C26.5 21.4082 26.7734 21.6914 27.2422 21.6914C27.5254 21.6914 27.6816 21.6035 28.1016 21.2031L28.6289 20.7051L28.541 21.1738C28.4922 21.4278 28.2969 22.1016 28.1016 22.6582C27.7695 23.625 27.75 23.7324 27.7891 24.6602C27.8477 25.8711 28.0527 26.4473 28.8438 27.6289C29.4102 28.4492 29.7227 29.2793 29.7227 29.8946C29.7227 30.5098 29.4102 31.3399 28.8438 32.1602C27.9551 33.4785 27.8184 33.9082 27.8184 35.3633C27.8184 36.8184 27.9648 37.3067 28.7363 38.4395C29.0098 38.8399 29.2344 39.1914 29.2344 39.2207C29.2344 39.25 27.2031 39.2696 24.7227 39.2696C20.4746 39.2696 20.1816 39.2793 19.8984 39.4551C19.6934 39.5821 18.7461 40.9492 16.8027 43.918C14.1074 48.0391 14 48.2149 14 48.6738C14 49.25 14.2051 49.6699 14.6152 49.9141C14.8984 50.0899 15.123 50.1094 17.1934 50.1094H19.459L19.6543 49.8555C19.918 49.5235 19.918 49.2305 19.6543 48.8985L19.459 48.6446H17.5449C16.5 48.6446 15.6602 48.6055 15.6797 48.5664C15.6992 48.5176 16.8516 46.7403 18.248 44.6113L20.7871 40.7344H25.25H29.7227V40.9785C29.7227 41.7891 31.0605 41.8281 31.2363 41.0274L31.3047 40.7344H35.25C39.0391 40.7344 39.1953 40.7442 39.1953 40.9199C39.1953 41.0176 39.2832 41.2129 39.4004 41.3594C39.6836 41.7207 40.2695 41.7207 40.5527 41.3594C40.6699 41.2129 40.7578 41.0176 40.7578 40.9199C40.7578 40.7442 40.9141 40.7344 44.7031 40.7344H48.6484L48.7168 41.0274C48.8926 41.8281 50.2305 41.7891 50.2305 40.9785V40.7344H53.7266H57.2129L59.752 44.6113C61.1484 46.7403 62.3105 48.5176 62.3203 48.5664C62.3398 48.6055 53.3066 48.6446 42.2422 48.6446H22.1152L21.9199 48.8985C21.6562 49.2305 21.6562 49.5235 21.9199 49.8555L22.1152 50.1094H25.6797H29.2441L29.4492 50.5781C29.6055 50.9199 29.6641 51.2324 29.6641 51.8184C29.6641 52.6973 29.4492 53.2832 28.8145 54.1719C28.1504 55.0996 27.8477 55.8906 27.7891 56.8379C27.7402 57.6778 27.75 57.6973 28.0137 57.9024C28.6582 58.4102 29.332 57.9903 29.332 57.0723C29.332 56.4473 29.5078 56.0176 30.1621 55.0313C30.8457 54.0156 31.1387 53.2442 31.2461 52.2285C31.2949 51.7012 31.1875 50.666 31.0215 50.2461C30.9824 50.1289 31.5 50.1094 34.8594 50.1289L38.7559 50.1582L38.9316 50.5391C39.1953 51.0957 39.2539 52.1016 39.0684 52.7559C38.9805 53.0391 38.6387 53.6934 38.3164 54.1817C37.6133 55.2461 37.3398 55.9492 37.2715 56.916C37.2227 57.5703 37.2324 57.6289 37.4668 57.8633C37.7891 58.1856 38.2383 58.1953 38.5508 57.8926C38.7168 57.7266 38.7852 57.5117 38.834 57.0235C38.9023 56.3203 39.1172 55.8125 39.6445 55.0801C40.6113 53.7422 40.9727 52.1504 40.6211 50.666L40.4941 50.1094H44.3613H48.2383L48.4238 50.4707C48.6582 50.959 48.7363 52.209 48.5605 52.8145C48.4922 53.0684 48.1992 53.625 47.9062 54.0547C47.1934 55.0996 46.9297 55.6856 46.8027 56.5938C46.6953 57.4336 46.7832 57.8438 47.1152 58.0196C47.6133 58.293 48.2773 57.9317 48.2773 57.3946C48.2773 56.7207 48.5801 55.9199 49.1562 55.0703C50.0156 53.7813 50.1719 53.3223 50.1816 51.9649C50.1816 51.3496 50.1426 50.6758 50.1035 50.4707L50.0254 50.1094H56.5488C62.8477 50.1094 63.082 50.0996 63.3848 49.9141C63.7949 49.6699 64 49.25 64 48.6738C64 48.2149 63.8926 48.0293 61.1973 43.918C59.2441 40.9297 58.3066 39.5821 58.1016 39.4551C57.8184 39.2793 57.5449 39.2696 53.9219 39.2696H50.0449L49.8594 38.8496C49.7617 38.625 49.4102 38.0391 49.0879 37.541C48.0137 35.9102 48.0234 34.7969 49.1465 33.1074C49.8984 31.9746 50.1523 31.3203 50.2109 30.3145C50.2793 29.1035 50.1719 28.4492 49.8398 28.1172C49.5078 27.7949 49.1855 27.7656 48.8242 28.0488L48.5703 28.2539L48.6289 29.3867C48.707 30.7539 48.6094 31.0762 47.7598 32.3164C46.4219 34.2696 46.4121 36.4668 47.7305 38.4102C47.9551 38.752 48.1797 39.084 48.2188 39.1426C48.2773 39.2403 47.4863 39.2696 44.4004 39.2696H40.5039L40.377 38.9278C40.3184 38.7422 40.0059 38.2051 39.7031 37.7363C38.9805 36.6328 38.9023 36.4278 38.834 35.6563C38.7559 34.7578 38.9707 34.0938 39.6836 33.0488C40.4844 31.877 40.709 31.1934 40.709 29.8946C40.709 28.5957 40.4941 27.9219 39.6836 26.7305C38.7559 25.3535 38.6094 24.5723 39.0586 23.3223C39.4102 22.3262 39.5762 21.7305 39.6445 21.0762L39.7129 20.5L40.3086 21.0957C40.8262 21.6035 40.9629 21.6914 41.2656 21.6914C41.6953 21.6914 42.0273 21.3399 42.0273 20.8809C42.0273 20.6367 41.8125 20.3731 40.6797 19.2403C38.9023 17.4434 39.0977 17.4434 37.3203 19.2305C36.168 20.3731 35.9727 20.6172 35.9727 20.8809C35.9727 21.3399 36.3047 21.6914 36.7344 21.6914C37.0273 21.6914 37.1738 21.6035 37.6133 21.1738L38.1406 20.666L38.082 21.0567C38.043 21.2715 37.8574 21.9063 37.6621 22.4727C37.2617 23.625 37.1641 24.4746 37.3301 25.3535C37.457 26.0371 37.8574 26.9258 38.3359 27.5996C38.9023 28.3906 39.1074 28.8887 39.166 29.5918C39.2441 30.5 39.0293 31.1641 38.3457 32.1602C37.6621 33.1465 37.3496 33.9863 37.2715 34.9824C37.1738 36.3008 37.457 37.2871 38.3262 38.5567L38.8047 39.2696H34.9082H31.0117L30.9141 38.9766C30.8555 38.8203 30.5332 38.2637 30.2012 37.7559C29.459 36.6035 29.3418 36.2813 29.332 35.3926C29.332 34.5039 29.5176 34.0059 30.2402 32.9512C30.9434 31.916 31.2266 31.0371 31.2266 29.8946C31.2266 28.752 30.9531 27.9121 30.2012 26.7598C29.8691 26.2617 29.5371 25.6758 29.4688 25.4707C29.2344 24.8067 29.293 23.9961 29.6641 22.961C29.8398 22.4531 30.0449 21.711 30.1133 21.3203L30.2305 20.6074L30.7969 21.1446C31.2656 21.5938 31.4316 21.6914 31.7051 21.6914C32.125 21.6914 32.4375 21.4473 32.5156 21.0371C32.5742 20.7539 32.4961 20.6465 31.334 19.4063C30.6504 18.6738 30.0156 18.0293 29.918 17.9805C29.4297 17.7168 29.2441 17.834 27.8477 19.2305Z" fill="#696A68"/>
<path d="M48.0239 18.0293C47.9067 18.1074 47.2817 18.7422 46.6176 19.4453C45.5044 20.6465 45.4262 20.7539 45.4848 21.0371C45.5727 21.4863 45.8071 21.6914 46.2465 21.6914C46.5688 21.6914 46.7055 21.6133 47.1255 21.2227L47.6235 20.7637L47.5454 21.2031C47.5063 21.4473 47.3305 22.0332 47.1548 22.5215C46.7641 23.5957 46.6762 24.2695 46.8032 25.1484C46.9301 26.0566 47.145 26.3301 47.6919 26.3301C48.0337 26.3301 48.1508 26.2812 48.3071 26.0664C48.4926 25.8223 48.4926 25.7539 48.3852 25.1387C48.2583 24.3965 48.3364 23.791 48.6489 23.0586C48.8833 22.502 49.1567 21.4277 49.1567 21.0273C49.1567 20.8613 49.1958 20.7051 49.2348 20.6758C49.2837 20.6465 49.5571 20.8613 49.8403 21.1543C50.2993 21.6133 50.4262 21.6914 50.7387 21.6914C51.227 21.6914 51.5005 21.418 51.5005 20.9395C51.5005 20.6074 51.4028 20.4805 50.1528 19.2305C49.02 18.0977 48.7563 17.8828 48.5122 17.8828C48.3559 17.8828 48.1313 17.9512 48.0239 18.0293Z" fill="#696A68"/>
<path d="M22.4277 41.9746C22.1543 42.0234 21.8125 42.4531 21.8125 42.7363C21.8125 42.8535 21.9004 43.0684 22.0176 43.2148C22.2031 43.4492 22.2715 43.4688 23.043 43.4688C23.7363 43.4688 23.8926 43.4395 24.0586 43.2734C24.2637 43.0684 24.3125 42.5996 24.1562 42.2969C23.9902 41.9746 23.1895 41.8281 22.4277 41.9746Z" fill="#696A68"/>
<path d="M28.7949 41.9746C28.4238 42.0723 28.2578 42.3066 28.2578 42.7363C28.2578 43.3613 28.4434 43.4688 29.459 43.4688C30.2109 43.4688 30.3086 43.4492 30.4453 43.2539C30.6699 42.9414 30.6406 42.3652 30.4062 42.1504C30.2109 41.9746 29.1953 41.8574 28.7949 41.9746Z" fill="#696A68"/>
<path d="M35.0352 42.043C34.7031 42.1895 34.6055 42.3652 34.6055 42.7949C34.6055 43.3125 34.8887 43.4688 35.8164 43.4688C36.5879 43.4688 36.6562 43.4492 36.8418 43.2148C37.1055 42.873 37.1055 42.5703 36.8223 42.248C36.6367 42.0234 36.5 41.9746 35.9727 41.9453C35.5527 41.916 35.2305 41.9453 35.0352 42.043Z" fill="#696A68"/>
<path d="M41.5684 41.9746C41.2949 42.0234 40.9531 42.4531 40.9531 42.7363C40.9531 42.8535 41.041 43.0684 41.1582 43.2148C41.3437 43.4492 41.4121 43.4688 42.1836 43.4688C42.877 43.4688 43.0332 43.4395 43.1992 43.2734C43.4043 43.0684 43.4531 42.5996 43.2969 42.2969C43.1309 41.9746 42.3301 41.8281 41.5684 41.9746Z" fill="#696A68"/>
<path d="M47.9355 41.9746C47.5645 42.0723 47.3984 42.3066 47.3984 42.7363C47.3984 43.3613 47.584 43.4688 48.5996 43.4688C49.3516 43.4688 49.4492 43.4492 49.5859 43.2539C49.8105 42.9414 49.7812 42.3652 49.5469 42.1504C49.3516 41.9746 48.3359 41.8574 47.9355 41.9746Z" fill="#696A68"/>
<path d="M54.1758 42.043C53.8438 42.1895 53.7461 42.3652 53.7461 42.7949C53.7461 43.3125 54.0293 43.4688 54.957 43.4688C55.7285 43.4688 55.7969 43.4492 55.9824 43.2148C56.2461 42.873 56.2461 42.5703 55.9629 42.248C55.7773 42.0234 55.6406 41.9746 55.1133 41.9453C54.6934 41.916 54.3711 41.9453 54.1758 42.043Z" fill="#696A68"/>
<path d="M25.0938 45.4316C24.8984 45.5879 24.8398 45.7148 24.8398 46.0078C24.8398 46.5645 25.1621 46.7891 25.9824 46.7891C26.7246 46.7891 26.9199 46.7012 27.0859 46.3008C27.1836 46.0664 27.1836 45.9492 27.0859 45.7148C26.9199 45.3145 26.7246 45.2266 25.9824 45.2266C25.4941 45.2266 25.2988 45.2754 25.0938 45.4316Z" fill="#696A68"/>
<path d="M31.6955 45.2949C31.4807 45.3828 31.2659 45.9102 31.3342 46.2129C31.4319 46.6426 31.7248 46.7891 32.467 46.7891C33.3069 46.7891 33.6291 46.5742 33.6291 46.0078C33.6291 45.4414 33.3069 45.2266 32.467 45.2363C32.1155 45.2363 31.7639 45.2656 31.6955 45.2949Z" fill="#696A68"/>
<path d="M38.0723 45.4707C37.916 45.6172 37.8281 45.8223 37.8281 46.0078C37.8281 46.1934 37.916 46.3984 38.0723 46.5449C38.2773 46.7598 38.3945 46.7891 39 46.7891C39.6055 46.7891 39.7227 46.7598 39.9277 46.5449C40.084 46.3984 40.1719 46.1934 40.1719 46.0078C40.1719 45.8223 40.084 45.6172 39.9277 45.4707C39.7227 45.2559 39.6055 45.2266 39 45.2266C38.3945 45.2266 38.2773 45.2559 38.0723 45.4707Z" fill="#696A68"/>
<path d="M44.625 45.4316C44.4297 45.5879 44.3711 45.7148 44.3711 46.0078C44.3711 46.5645 44.6934 46.7891 45.5137 46.7891C46.2559 46.7891 46.4512 46.7012 46.6172 46.3008C46.7148 46.0664 46.7148 45.9492 46.6172 45.7148C46.4512 45.3145 46.2559 45.2266 45.5137 45.2266C45.0254 45.2266 44.8301 45.2754 44.625 45.4316Z" fill="#696A68"/>
<path d="M51.2268 45.2949C51.0119 45.3828 50.7971 45.9102 50.8655 46.2129C50.9631 46.6426 51.2561 46.7891 51.9983 46.7891C52.8381 46.7891 53.1604 46.5742 53.1604 46.0078C53.1604 45.4414 52.8381 45.2266 51.9983 45.2363C51.6467 45.2363 51.2952 45.2656 51.2268 45.2949Z" fill="#696A68"/>
</svg>
