<svg width="77" height="77" viewBox="0 0 77 77" fill="none" xmlns="http://www.w3.org/2000/svg">
<rect x="1" y="1" width="75" height="75" rx="37.5" stroke="#696A68" stroke-width="2"/>
<path d="M13.5 41L64.5 41" stroke="#696A68" stroke-width="2"/>
<path d="M13.5 51L64.5 51" stroke="#696A68" stroke-width="2"/>
<path d="M20.7071 16.2929C20.3166 15.9024 19.6834 15.9024 19.2929 16.2929L12.9289 22.6569C12.5384 23.0474 12.5384 23.6806 12.929 24.0711C13.3195 24.4616 13.9526 24.4616 14.3432 24.0711L20 18.4142L25.6569 24.0711C26.0474 24.4616 26.6806 24.4616 27.0711 24.0711C27.4616 23.6805 27.4616 23.0474 27.0711 22.6568L20.7071 16.2929ZM40.4601 16.2929C40.0696 15.9024 39.4364 15.9024 39.0459 16.2929L32.682 22.6569C32.2915 23.0474 32.2915 23.6806 32.682 24.0711C33.0725 24.4616 33.7057 24.4616 34.0962 24.0711L39.753 18.4142L45.4099 24.0711C45.8004 24.4616 46.4336 24.4616 46.8241 24.0711C47.2146 23.6805 47.2146 23.0474 46.8241 22.6568L40.4601 16.2929ZM60.707 16.2929C60.3165 15.9024 59.6834 15.9024 59.2928 16.2929L52.9289 22.6569C52.5384 23.0474 52.5384 23.6806 52.9289 24.0711C53.3194 24.4616 53.9526 24.4616 54.3431 24.0711L59.9999 18.4142L65.6568 24.0711C66.0473 24.4616 66.6805 24.4616 67.071 24.0711C67.4615 23.6805 67.4615 23.0474 67.071 22.6568L60.707 16.2929ZM19 17L19 18.5L21 18.5L21 17L19 17ZM19 21.5L19 24.5L21 24.5L21 21.5L19 21.5ZM19 27.5L19 30.5L21 30.5L21 27.5L19 27.5ZM19 33.5L19 36.5L21 36.5L21 33.5L19 33.5ZM19.0001 39.5L19.0001 41L21.0001 41L21.0001 39.5L19.0001 39.5ZM38.753 17L38.753 18.5L40.753 18.5L40.753 17L38.753 17ZM38.753 21.5L38.7531 24.5L40.7531 24.5L40.753 21.5L38.753 21.5ZM38.7531 27.5L38.7531 30.5L40.7531 30.5L40.7531 27.5L38.7531 27.5ZM38.7531 33.5L38.7531 36.5L40.7531 36.5L40.7531 33.5L38.7531 33.5ZM38.7531 39.5L38.7531 41L40.7531 41L40.7531 39.5L38.7531 39.5ZM58.9999 17L58.9999 18.5L60.9999 18.5L60.9999 17L58.9999 17ZM59 21.5L59 24.5L61 24.5L61 21.5L59 21.5ZM59 27.5L59 30.5L61 30.5L61 27.5L59 27.5ZM59 33.5L59 36.5L61 36.5L61 33.5L59 33.5ZM59 39.5L59 41L61 41L61 39.5L59 39.5Z" fill="#696A68"/>
<path d="M20 51L20.0001 63M39.753 51L39.7531 63M59.9999 51L60 63" stroke="#696A68" stroke-width="2"/>
<circle cx="16" cy="48" r="1" fill="#696A68"/>
<circle cx="36" cy="48" r="1" fill="#696A68"/>
<circle cx="1" cy="1" r="1" transform="matrix(1 0 0 -1 30 46)" fill="#696A68"/>
<circle cx="1" cy="1" r="1" transform="matrix(1 0 0 -1 50 46)" fill="#696A68"/>
<circle cx="21" cy="45" r="1" fill="#696A68"/>
<circle cx="41" cy="45" r="1" fill="#696A68"/>
<circle cx="1" cy="1" r="1" transform="matrix(1 0 0 -1 55 49)" fill="#696A68"/>
<circle cx="26" cy="48" r="1" fill="#696A68"/>
<circle cx="46" cy="48" r="1" fill="#696A68"/>
<circle cx="1" cy="1" r="1" transform="matrix(1 0 0 -1 60 46)" fill="#696A68"/>
</svg>
