<svg width="77" height="77" viewBox="0 0 77 77" fill="none" xmlns="http://www.w3.org/2000/svg">
<rect x="1" y="1" width="75" height="75" rx="37.5" stroke="#696A68" stroke-width="2"/>
<path d="M17.1641 25.1978C17.0752 24.979 17.1572 24.8218 17.4102 24.7261C17.9365 24.5278 18.4355 24.21 18.9072 23.7725C19.3789 23.335 19.7515 22.9453 20.0249 22.6035C20.2231 22.3574 20.4146 22.2344 20.5991 22.2344H21.4707C21.7852 22.2344 21.9424 22.3882 21.9424 22.6958V36.5386C21.9424 36.8462 21.7886 37 21.481 37H20.5991C20.2915 37 20.1377 36.8462 20.1377 36.5386V25.3003C20.1377 25.0952 20.1445 24.8901 20.1582 24.6851H20.1377C19.9258 24.9517 19.6147 25.2251 19.2046 25.5054C18.7944 25.7856 18.4185 25.9907 18.0767 26.1206C17.7759 26.2368 17.5776 26.1821 17.4819 25.9565L17.1641 25.1978ZM32.4014 37C32.0254 37 31.8374 36.8462 31.8374 36.5386V36.0464C31.8374 35.7798 31.9502 35.5337 32.1758 35.3081L36.1953 31.2578C37.3848 30.0615 38.1641 29.1387 38.5332 28.4893C38.9092 27.833 39.0972 27.0776 39.0972 26.2231C39.0972 25.5054 38.8853 24.897 38.4614 24.3979C38.0444 23.8989 37.4087 23.6494 36.5542 23.6494C35.7886 23.6494 35.1528 23.8442 34.647 24.2339C34.1411 24.6235 33.7754 25.2764 33.5498 26.1924C33.4541 26.582 33.2524 26.7324 32.9448 26.6436L32.145 26.4077C31.9331 26.3462 31.8818 26.0557 31.9912 25.5361C32.1895 24.6406 32.668 23.8477 33.4268 23.1572C34.1924 22.46 35.2075 22.1113 36.4722 22.1113C38.0786 22.1113 39.251 22.5146 39.9893 23.3213C40.7344 24.1279 41.1069 25.1157 41.1069 26.2847C41.1069 27.4263 40.7993 28.4106 40.1841 29.2378C39.5757 30.0649 38.7383 30.9946 37.6719 32.0269L34.2983 35.2979V35.3389C34.4829 35.3252 34.7563 35.3184 35.1187 35.3184H40.707C41.083 35.3184 41.271 35.4722 41.271 35.7798V36.5386C41.271 36.8462 41.083 37 40.707 37H32.4014ZM50.6021 35.4824C50.3286 35.168 50.2739 34.9116 50.438 34.7134L50.9712 34.0674C51.2036 33.7871 51.4805 33.8486 51.8018 34.252C52.1572 34.6963 52.5947 35.062 53.1143 35.3491C53.6406 35.6294 54.1909 35.7695 54.7651 35.7695C55.8931 35.7695 56.6929 35.4893 57.1646 34.9287C57.6362 34.3682 57.8721 33.6196 57.8721 32.6831C57.8721 31.6919 57.5576 30.9741 56.9287 30.5298C56.2998 30.0854 55.5957 29.8633 54.8164 29.8633H53.9141C53.6064 29.8633 53.4526 29.7505 53.4526 29.5249V28.7661C53.4526 28.5269 53.6064 28.4072 53.9141 28.4072H54.6421C55.394 28.4072 56.0366 28.1611 56.5698 27.6689C57.1099 27.1768 57.3799 26.5068 57.3799 25.6592C57.3799 25.0713 57.1646 24.5894 56.7339 24.2134C56.3032 23.8374 55.6982 23.6494 54.9189 23.6494C54.1875 23.6494 53.5894 23.8169 53.1245 24.1519C52.6597 24.4868 52.3315 24.7773 52.1401 25.0234C51.8872 25.3516 51.6411 25.4028 51.4019 25.1772L50.7969 24.5928C50.6191 24.4219 50.6978 24.1382 51.0327 23.7417C51.3882 23.3247 51.8975 22.9487 52.5605 22.6138C53.2305 22.2788 54.0269 22.1113 54.9497 22.1113C56.3647 22.1113 57.4448 22.4531 58.1899 23.1367C58.9351 23.8203 59.3076 24.7056 59.3076 25.7925C59.3076 26.6538 59.041 27.375 58.5078 27.9561C57.9814 28.5303 57.4038 28.8857 56.7749 29.0225V29.0635C57.5063 29.166 58.207 29.5625 58.877 30.2529C59.5469 30.9434 59.8818 31.7671 59.8818 32.7241C59.8818 34.146 59.4683 35.2671 58.6411 36.0874C57.8208 36.9009 56.5151 37.3076 54.7241 37.3076C53.6851 37.3076 52.8271 37.106 52.1504 36.7026C51.4736 36.2925 50.9575 35.8857 50.6021 35.4824Z" fill="#696A68"/>
<path d="M16 52.5H61.5" stroke="#696A68" stroke-width="2"/>
<circle cx="20" cy="53" r="6" fill="#696A68"/>
<circle cx="38" cy="53" r="6" fill="#696A68"/>
<circle cx="56" cy="53" r="5" fill="#D9D9D9" stroke="#696A68" stroke-width="2"/>
</svg>
