<svg width="34" height="34" viewBox="0 0 34 34" fill="none" xmlns="http://www.w3.org/2000/svg">
<path d="M18.7091 0.375C20.5793 0.379987 21.5285 0.389962 22.3481 0.413237L22.6706 0.424874C23.043 0.438173 23.4104 0.454798 23.8542 0.474747C25.6231 0.55787 26.83 0.837164 27.8889 1.24779C28.9861 1.67006 29.9104 2.24194 30.8347 3.16461C31.6804 3.99539 32.3345 5.00075 32.7515 6.11049C33.1621 7.16947 33.4414 8.37642 33.5245 10.1469C33.5445 10.5892 33.5611 10.9566 33.5744 11.3306L33.5844 11.6531C33.6093 12.4711 33.6193 13.4203 33.6226 15.2906L33.6243 16.5308V18.7086C33.6283 19.9212 33.6156 21.1338 33.586 22.3461L33.5761 22.6686C33.5628 23.0426 33.5461 23.41 33.5262 23.8523C33.4431 25.6228 33.1605 26.8281 32.7515 27.8887C32.3345 28.9984 31.6804 30.0038 30.8347 30.8346C30.004 31.6803 28.9986 32.3344 27.8889 32.7514C26.83 33.162 25.6231 33.4413 23.8542 33.5244L22.6706 33.5743L22.3481 33.5843C21.5285 33.6076 20.5793 33.6192 18.7091 33.6225L17.4689 33.6242H15.2928C14.0797 33.6285 12.8665 33.6157 11.6538 33.586L11.3313 33.576C10.9366 33.561 10.5421 33.5439 10.1476 33.5244C8.37882 33.4413 7.1719 33.162 6.11128 32.7514C5.00217 32.3342 3.99742 31.6801 3.16714 30.8346C2.32088 30.004 1.66616 28.9986 1.24871 27.8887C0.838097 26.8297 0.558811 25.6228 0.47569 23.8523L0.425818 22.6686L0.417506 22.3461C0.386861 21.1338 0.373006 19.9212 0.375946 18.7086V15.2906C0.371344 14.078 0.383537 12.8654 0.412519 11.6531L0.424156 11.3306C0.437455 10.9566 0.454079 10.5892 0.474028 10.1469C0.557149 8.37642 0.836435 7.17113 1.24705 6.11049C1.66547 5.00029 2.32134 3.9949 3.1688 3.16461C3.99861 2.31933 5.00276 1.66519 6.11128 1.24779C7.1719 0.837164 8.37715 0.55787 10.1476 0.474747C10.5898 0.454798 10.9589 0.438173 11.3313 0.424874L11.6538 0.414899C12.866 0.385362 14.0786 0.372615 15.2911 0.376662L18.7091 0.375ZM17.0001 8.6873C14.7956 8.6873 12.6814 9.56306 11.1226 11.1219C9.56376 12.6808 8.68803 14.795 8.68803 16.9996C8.68803 19.2042 9.56376 21.3184 11.1226 22.8773C12.6814 24.4361 14.7956 25.3119 17.0001 25.3119C19.2046 25.3119 21.3188 24.4361 22.8776 22.8773C24.4365 21.3184 25.3122 19.2042 25.3122 16.9996C25.3122 14.795 24.4365 12.6808 22.8776 11.1219C21.3188 9.56306 19.2046 8.6873 17.0001 8.6873ZM17.0001 12.0122C17.655 12.0121 18.3036 12.141 18.9087 12.3915C19.5138 12.6421 20.0637 13.0094 20.5269 13.4724C20.9901 13.9354 21.3575 14.4852 21.6082 15.0902C21.859 15.6953 21.9881 16.3438 21.9882 16.9988C21.9883 17.6537 21.8594 18.3023 21.6089 18.9074C21.3583 19.5126 20.9911 20.0624 20.528 20.5256C20.065 20.9888 19.5153 21.3563 18.9102 21.607C18.3052 21.8578 17.6567 21.9869 17.0018 21.987C15.6791 21.987 14.4105 21.4615 13.4753 20.5262C12.54 19.5909 12.0145 18.3223 12.0145 16.9996C12.0145 15.6769 12.54 14.4083 13.4753 13.473C14.4105 12.5377 15.6791 12.0122 17.0018 12.0122M25.7295 6.19361C25.1783 6.19361 24.6498 6.41255 24.2601 6.80226C23.8704 7.19198 23.6514 7.72054 23.6514 8.27168C23.6514 8.82282 23.8704 9.35139 24.2601 9.7411C24.6498 10.1308 25.1783 10.3498 25.7295 10.3498C26.2806 10.3498 26.8091 10.1308 27.1988 9.7411C27.5885 9.35139 27.8075 8.82282 27.8075 8.27168C27.8075 7.72054 27.5885 7.19198 27.1988 6.80226C26.8091 6.41255 26.2806 6.19361 25.7295 6.19361Z" fill="white"/>
</svg>
