<svg width="234" height="38" viewBox="0 0 234 38" fill="none" xmlns="http://www.w3.org/2000/svg">
<path d="M231.142 12.1242C230.32 12.1242 229.648 11.9001 229.125 11.4518C229.835 10.9661 230.582 10.331 231.366 9.54639C232.188 8.76182 233.029 7.82782 233.888 6.74437C233.963 6.74437 234 6.83777 234 7.02457L233.72 8.64974C233.533 9.80791 233.197 10.6859 232.711 11.2836C232.226 11.844 231.703 12.1242 231.142 12.1242ZM225.762 32.5229C224.343 32.5229 223.633 31.4955 223.633 29.4407C223.633 26.3398 224.754 22.2489 226.995 17.1679C226.995 17.0184 227.089 16.7382 227.275 16.3273C227.5 15.9163 227.668 15.6548 227.78 15.5427C228.041 15.2812 228.396 15.1504 228.845 15.1504C230.152 15.1504 230.862 15.4119 230.974 15.935C230.376 16.9064 229.797 18.0272 229.237 19.2974C228.714 20.5677 228.191 21.9687 227.668 23.5004C227.107 25.1443 226.696 26.5079 226.435 27.5914C226.211 28.6375 226.099 29.4781 226.099 30.1132C226.099 31.0472 226.341 31.5142 226.827 31.5142C227.163 31.5142 227.593 31.3087 228.116 30.8978C228.527 30.5615 228.807 30.3187 228.957 30.1692C229.143 30.0198 229.312 29.889 229.461 29.777C229.61 29.777 229.685 29.8517 229.685 30.0011C229.685 30.4121 229.143 30.9351 228.06 31.5703C226.977 32.2054 226.211 32.5229 225.762 32.5229Z" fill="white"/>
<path d="M217.902 32.1866C216.109 32.1866 215.212 30.6922 215.212 27.7034C215.212 25.798 215.81 22.6597 217.005 18.2886C218.201 13.8801 219.714 9.8265 221.544 6.12784C223.412 2.35445 225.056 0.467758 226.476 0.467758C227.298 0.467758 228.12 0.74796 228.942 1.30836C229.764 1.83141 230.175 2.41049 230.175 3.04562C230.175 5.73555 226.215 11.7132 218.294 20.9785C217.995 22.3609 217.752 23.6498 217.566 24.8453C217.416 26.0408 217.341 27.1617 217.341 28.2077C217.341 30.2626 217.79 31.29 218.686 31.29L219.583 31.0098C219.77 31.0098 219.863 31.1032 219.863 31.29C219.863 31.8877 219.209 32.1866 217.902 32.1866ZM218.686 19.5215C225.449 10.7045 228.83 5.15647 228.83 2.8775C228.83 2.42917 228.699 2.20501 228.437 2.20501C227.317 2.20501 225.691 4.20378 223.562 8.20133C221.432 12.1989 219.807 15.9723 218.686 19.5215Z" fill="white"/>
<path d="M199.008 32.1306C198.261 32.1306 197.57 31.7943 196.935 31.1218C196.337 30.412 196.038 29.5153 196.038 28.4319C196.038 27.3485 196.692 25.6672 198 23.3883C199.307 21.1467 200.914 19.1292 202.819 17.3359C204.687 15.58 206.293 14.702 207.638 14.702H208.199C209.581 14.702 210.758 14.9822 211.729 15.5426C212.701 16.0657 213.186 16.7755 213.186 17.6722C213.186 18.0831 213.018 18.2886 212.682 18.2886C212.57 18.2886 212.514 18.2326 212.514 18.1205C211.916 16.7381 211.001 16.047 209.768 16.047C207.638 16.047 205.21 17.8029 202.483 21.3148C199.755 24.7519 198.392 27.4045 198.392 29.2725C198.392 29.9824 198.579 30.3373 198.952 30.3373C200.633 30.3373 204.164 26.5452 209.544 18.9611C209.506 18.9984 209.525 18.9984 209.6 18.9611C209.712 18.8864 209.805 18.849 209.88 18.849C210.067 18.849 210.459 19.0358 211.057 19.4094C211.655 19.7456 211.954 20.0445 211.954 20.306C211.954 20.306 211.879 20.4368 211.729 20.6983C211.58 20.9225 211.393 21.2774 211.169 21.7631C210.571 23.0333 210.104 24.2849 209.768 25.5178C209.469 26.7133 209.32 27.7594 209.32 28.6561C209.32 30.6362 209.805 31.6262 210.777 31.6262L211.337 31.5141L211.449 31.5702C211.449 31.9064 210.982 32.0745 210.048 32.0745C209.152 32.0745 208.404 31.6636 207.807 30.8416C207.246 29.9824 206.966 28.8429 206.966 27.4232C206.966 26.0408 207.209 24.5091 207.694 22.8279C207.657 22.9399 207.526 23.1454 207.302 23.4443C207.078 23.7432 206.723 24.2662 206.237 25.0134C203.174 29.7582 200.764 32.1306 199.008 32.1306Z" fill="white"/>
<path d="M183.75 33.5878C182.144 33.5878 180.519 33.3076 178.875 32.7472C177.268 32.2615 176.465 31.589 176.465 30.7297C176.465 30.655 176.502 30.6176 176.577 30.6176L176.913 30.7297C177.773 31.2901 178.856 31.5703 180.164 31.5703C183.339 31.5703 186.141 30.8044 188.57 29.2726C190.961 27.7782 192.156 26.3212 192.156 24.9015C192.156 23.4445 191.204 22.2489 189.298 21.3149C188.252 20.7919 187.206 20.4183 186.16 20.1941C185.151 19.9699 184.199 19.8579 183.302 19.8579C181.808 19.8579 180.593 20.0633 179.659 20.4743C179.286 20.437 179.099 20.1941 179.099 19.7458C179.099 19.2227 179.491 18.8491 180.276 18.625L182.069 18.3448C186.216 17.224 189.448 15.7856 191.764 14.0297C194.08 12.2364 195.239 10.2376 195.239 8.03335C195.239 6.94991 194.622 6.07194 193.389 5.39946C192.156 4.72697 190.288 4.39073 187.785 4.39073C185.319 4.39073 183.246 4.61489 181.565 5.06321C180.743 5.25001 179.659 5.56758 178.314 6.0159C177.007 6.42686 175.363 6.96859 173.383 7.64107C169.609 8.91132 167.648 9.54644 167.499 9.54644C166.863 9.54644 166.546 9.09812 166.546 8.20147C166.546 7.79051 166.677 7.52899 166.938 7.41691C173.962 4.61489 180.724 3.21388 187.225 3.21388C194.734 3.21388 198.489 5.04453 198.489 8.70584C198.489 10.6486 197.163 12.61 194.51 14.5901C193.202 15.5614 191.727 16.402 190.083 17.1119C188.476 17.8217 186.702 18.4195 184.759 18.9052C187.636 19.1293 189.933 19.8579 191.652 21.0908C193.371 22.2863 194.23 23.9301 194.23 26.0223C194.23 28.0398 193.184 29.8144 191.092 31.3461C189.037 32.8406 186.59 33.5878 183.75 33.5878ZM171.702 37.1183C171.066 37.1183 170.506 36.6139 170.02 35.6052C169.572 34.5965 169.348 33.4196 169.348 32.0747C169.348 27.1805 172.057 20.1754 177.474 11.0595C179.043 8.10807 180.089 6.63234 180.612 6.63234C181.135 6.63234 181.695 6.7631 182.293 7.02463C182.891 7.24879 183.19 7.47295 183.19 7.69711C183.19 7.73447 183.171 7.79051 183.134 7.86523C175.064 19.559 171.029 28.2079 171.029 33.8119C171.029 34.5218 171.179 35.2129 171.477 35.8854C171.776 36.5579 171.963 36.8941 172.038 36.8941C171.963 37.0436 171.851 37.1183 171.702 37.1183Z" fill="white"/>
<path d="M142.823 33.7558C142.599 33.7558 142.393 33.6624 142.206 33.4756C140.226 31.3834 139.236 30.2439 139.236 30.0571C139.236 29.833 139.348 29.7209 139.573 29.7209H139.685C140.693 29.0858 141.534 28.5254 142.206 28.0397C142.543 26.7694 142.991 25.3124 143.551 23.6685C144.149 22.0247 144.822 20.3435 145.569 18.6249L148.763 11.2836C149.473 9.63977 150.015 8.23876 150.388 7.08059C150.799 5.88506 151.005 4.9137 151.005 4.16649C151.005 3.34457 150.65 2.93361 149.94 2.93361L147.979 3.32589C147.792 3.32589 147.698 3.21381 147.698 2.98965C147.698 2.42924 148.408 2.14904 149.828 2.14904C151.248 2.14904 152.312 2.41056 153.022 2.93361C153.732 3.41929 154.087 4.09177 154.087 4.95106C154.087 5.73562 153.246 7.84648 151.565 11.2836L148.259 18.0645L144.952 25.686C146.484 24.341 147.997 22.7719 149.492 20.9786C151.023 19.148 152.163 17.6909 152.91 16.6075C153.695 15.4866 154.143 14.9262 154.255 14.9262H154.535C155.88 14.9262 156.553 15.1691 156.553 15.6548C156.553 15.6174 156.534 15.6174 156.497 15.6548C156.497 15.6548 156.515 15.6734 156.553 15.7108V15.6548C156.515 15.58 156.422 15.6921 156.273 15.991C155.75 16.925 155.245 17.9711 154.76 19.1293C154.311 20.2874 153.882 21.539 153.471 22.884C152.649 25.4992 152.238 27.2551 152.238 28.1518C152.238 30.4307 152.63 31.5702 153.415 31.5702C153.676 31.5702 154.218 31.2153 155.04 30.5055C155.152 30.5055 155.208 30.6549 155.208 30.9538C155.208 31.9252 154.666 32.4108 153.583 32.4108C152.537 32.4108 151.677 31.8691 151.005 30.7857C150.332 29.7022 149.996 28.4506 149.996 27.031C149.996 25.4992 150.351 23.7806 151.061 21.8752C149.865 23.1081 148.67 24.2476 147.474 25.2937C146.316 26.3024 145.195 27.2364 144.112 28.0957C143.365 30.2253 142.991 31.6636 142.991 32.4108V32.691C143.327 32.9152 143.495 33.102 143.495 33.2514C143.495 33.5877 143.271 33.7558 142.823 33.7558ZM141.758 32.0186C141.758 31.9438 141.739 31.8318 141.702 31.6823C141.702 31.5702 141.702 31.4395 141.702 31.29C141.702 30.9164 141.758 30.3747 141.87 29.6649C141.459 29.889 141.123 30.0571 140.861 30.1692C140.6 30.2813 140.432 30.356 140.357 30.3934C140.544 30.6549 140.749 30.9351 140.974 31.234C141.198 31.4955 141.459 31.757 141.758 32.0186Z" fill="white"/>
<path d="M133.065 32.9712C132.131 32.9712 131.309 32.8031 130.6 32.4669C129.927 32.1306 129.591 31.813 129.591 31.5142C133.887 30.6175 136.035 29.5341 136.035 28.2638C136.035 28.0023 135.531 27.4232 134.522 26.5266C132.58 24.808 131.608 22.8839 131.608 20.7544C131.608 19.2226 132.561 17.7096 134.466 16.2151C136.446 14.646 138.24 13.8615 139.846 13.8615C140.108 13.8615 140.631 14.2537 141.415 15.0383C142.2 15.8229 142.592 16.3272 142.592 16.5514C142.592 16.7382 142.499 16.8316 142.312 16.8316C141.901 16.7569 141.565 16.7008 141.303 16.6635C141.042 16.5887 140.855 16.5514 140.743 16.5514C139.062 16.5514 137.324 17.1678 135.531 18.4007C133.775 19.6336 132.897 20.8852 132.897 22.1554C132.897 22.3796 133.775 23.5191 135.531 25.5739C137.287 27.554 138.165 28.9176 138.165 29.6648C138.165 30.412 137.642 31.1406 136.596 31.8504C136.035 32.224 135.438 32.5042 134.803 32.691C134.205 32.8778 133.626 32.9712 133.065 32.9712Z" fill="white"/>
<path d="M115.166 32.1306C114.419 32.1306 113.728 31.7943 113.093 31.1218C112.495 30.412 112.196 29.5153 112.196 28.4319C112.196 27.3485 112.85 25.6672 114.158 23.3883C115.465 21.1467 117.072 19.1292 118.977 17.3359C120.845 15.58 122.452 14.702 123.797 14.702H124.357C125.739 14.702 126.916 14.9822 127.888 15.5426C128.859 16.0657 129.345 16.7755 129.345 17.6722C129.345 18.0831 129.177 18.2886 128.84 18.2886C128.728 18.2886 128.672 18.2326 128.672 18.1205C128.074 16.7381 127.159 16.047 125.926 16.047C123.797 16.047 121.368 17.8029 118.641 21.3148C115.914 24.7519 114.55 27.4045 114.55 29.2725C114.55 29.9824 114.737 30.3373 115.11 30.3373C116.792 30.3373 120.322 26.5452 125.702 18.9611C125.665 18.9984 125.683 18.9984 125.758 18.9611C125.87 18.8864 125.964 18.849 126.038 18.849C126.225 18.849 126.617 19.0358 127.215 19.4094C127.813 19.7456 128.112 20.0445 128.112 20.306C128.112 20.306 128.037 20.4368 127.888 20.6983C127.738 20.9225 127.551 21.2774 127.327 21.7631C126.729 23.0333 126.262 24.2849 125.926 25.5178C125.627 26.7133 125.478 27.7594 125.478 28.6561C125.478 30.6362 125.964 31.6262 126.935 31.6262L127.495 31.5141L127.607 31.5702C127.607 31.9064 127.14 32.0745 126.206 32.0745C125.31 32.0745 124.563 31.6636 123.965 30.8416C123.404 29.9824 123.124 28.8429 123.124 27.4232C123.124 26.0408 123.367 24.5091 123.853 22.8279C123.815 22.9399 123.685 23.1454 123.46 23.4443C123.236 23.7432 122.881 24.2662 122.396 25.0134C119.332 29.7582 116.922 32.1306 115.166 32.1306Z" fill="white"/>
<path d="M76.2308 35.829C75.11 35.829 74.1573 35.3433 73.3728 34.372C72.6256 33.4006 72.252 32.2611 72.252 30.9535C72.252 28.0768 73.765 24.4902 76.7912 20.1938C78.323 18.0269 79.9295 16.0094 81.6107 14.1414C83.2919 12.2734 85.0665 10.5548 86.9345 8.98569C90.7079 5.84743 93.5847 4.2783 95.5648 4.2783C96.2372 4.2783 96.5735 4.48378 96.5735 4.89474C96.5735 5.04418 96.4801 5.15626 96.2933 5.23098C93.9396 6.42651 91.7353 7.92092 89.6805 9.71421C88.6344 10.6109 87.5136 11.6756 86.3181 12.9085C85.1599 14.1414 83.8897 15.5237 82.5073 17.0555C79.78 20.119 77.6505 23.0331 76.1187 25.7978C74.6243 28.5625 73.8771 30.7293 73.8771 32.2985C73.8771 33.7182 74.4562 34.428 75.6144 34.428C76.5857 34.428 77.4824 34.2599 78.3043 33.9237C79.0515 33.6621 80.4899 32.5787 82.6194 30.6733C83.7029 29.7393 85.0852 28.413 86.7664 26.6944C88.485 24.9385 90.5024 22.7903 92.8188 20.2498C97.4514 15.1688 100.048 12.6283 100.608 12.6283C101.169 12.6283 101.449 12.8525 101.449 13.3008C101.225 16.7006 101.113 19.2411 101.113 20.9223C101.113 28.1328 101.953 31.7381 103.635 31.7381C105.316 31.7381 106.81 30.0755 108.118 26.7505C109.425 23.3881 110.079 20.2311 110.079 17.2797C110.079 12.7591 108.921 10.1252 106.605 9.37797C106.493 9.30325 106.437 9.24721 106.437 9.20985C106.437 8.83625 107.034 8.64945 108.23 8.64945C109.425 8.64945 110.397 9.43401 111.144 11.0031C111.891 12.5349 112.265 14.6084 112.265 17.2236C112.265 21.3706 111.424 24.9946 109.743 28.0955C108.062 31.159 105.932 32.6908 103.354 32.6908C100.291 32.6908 98.759 29.5525 98.759 23.276C98.759 20.8476 98.9832 17.9895 99.4315 14.7018C98.9085 15.2248 98.0492 16.1962 96.8537 17.6159C95.6581 19.0356 94.0703 20.9036 92.0903 23.2199C90.1849 25.4989 88.4476 27.4416 86.8785 29.0481C85.3467 30.6546 83.9831 31.9436 82.7875 32.9149C80.3965 34.8577 78.2109 35.829 76.2308 35.829Z" fill="white"/>
<path d="M63.0408 32.2987C59.8652 32.2987 58.2773 30.823 58.2773 27.8715C58.2773 25.5926 59.3981 22.8279 61.6398 19.5776C63.9561 16.3272 66.1604 14.702 68.2525 14.702C69.1492 14.702 69.9337 15.0009 70.6062 15.5987C71.3161 16.1591 71.671 16.8503 71.671 17.6722C71.671 19.0545 70.793 20.4555 69.0371 21.8752C67.3185 23.2575 65.6186 23.9487 63.9374 23.9487C63.6012 23.9487 63.4331 23.874 63.4331 23.7245L63.6012 23.4443C67.8976 22.0994 70.0458 19.8951 70.0458 16.8316C70.0458 16.3833 69.8964 16.1591 69.5975 16.1591C69.1865 16.1591 68.4393 16.5887 67.3559 17.448C66.4219 18.1952 65.5439 19.0545 64.722 20.0259C63.9374 20.9972 63.2276 22.006 62.5924 23.0521C61.2475 25.331 60.575 27.2364 60.575 28.7682C60.575 30.2626 61.1541 31.0098 62.3122 31.0098C63.6572 31.0098 65.1329 30.3186 66.7394 28.9363C67.2625 28.4506 67.8229 27.9089 68.4206 27.3111C69.0184 26.676 69.6722 25.9848 70.3821 25.2376C71.7644 23.7432 72.4929 22.996 72.5676 22.996C72.7918 22.996 72.9039 23.0894 72.9039 23.2762C72.9039 23.4257 72.8665 23.5751 72.7918 23.7245C68.869 29.4407 65.6186 32.2987 63.0408 32.2987Z" fill="white"/>
<path d="M36.2396 31.7944C35.866 31.7944 35.4737 31.701 35.0627 31.5142C34.6518 31.3274 34.4463 31.1033 34.4463 30.8417C34.4463 30.2066 35.0627 27.965 36.2956 24.1169C37.5285 20.2314 38.145 17.3173 38.145 15.3746C38.145 14.7768 37.8834 14.4406 37.3604 14.3659C36.8373 14.2911 36.5758 14.1791 36.5758 14.0296C36.5758 13.6934 36.856 13.5253 37.4164 13.5253C39.9196 13.5253 41.1711 14.5527 41.1711 16.6075C41.1711 17.6162 40.7415 19.3535 39.8822 21.8192L41.1711 19.6337C42.0678 18.1019 42.9644 16.9064 43.8611 16.0471C44.7577 15.1504 45.7478 14.7021 46.8312 14.7021H46.9433C48.6619 14.7021 49.5211 15.8603 49.5211 18.1766C49.5211 19.1106 49.353 20.3248 49.0168 21.8192C48.6805 23.3136 48.1575 25.0882 47.4477 27.1431L55.1252 18.8491C55.6482 18.5502 56.3207 18.4008 57.1426 18.4008C58.0019 18.4008 58.4316 18.5689 58.4316 18.9051C56.9372 22.94 56.19 25.8915 56.19 27.7595C56.19 29.5154 56.5075 30.3934 57.1426 30.3934L57.5349 29.1605C57.647 29.422 57.703 29.8143 57.703 30.3374C57.703 31.3087 57.4042 31.7944 56.8064 31.7944C54.8637 31.7944 53.8923 30.1132 53.8923 26.7508C53.8923 25.9289 53.9483 24.9948 54.0604 23.9488C54.2099 22.9027 54.4153 21.7445 54.6769 20.4743C54.1912 20.9599 53.7429 21.4643 53.3319 21.9873C52.9583 22.473 52.5473 23.0334 52.099 23.6686L49.1849 27.7595C47.5784 30.0385 46.5884 31.178 46.2148 31.178C44.9445 31.178 44.3094 30.9538 44.3094 30.5055C44.3094 30.4681 44.5149 29.5902 44.9258 27.8716C46.2334 22.94 46.8873 19.6337 46.8873 17.9524C46.8873 17.1679 46.6444 16.7756 46.1587 16.7756C44.7764 16.7756 42.9084 18.8117 40.5547 22.884C40.1437 23.6312 39.6767 24.5278 39.1537 25.5739C38.668 26.5827 38.2197 27.554 37.8087 28.488C37.734 28.7122 37.5659 29.0858 37.3043 29.6088C37.0802 30.1319 36.856 30.6362 36.6319 31.1219C36.4077 31.5703 36.2769 31.7944 36.2396 31.7944Z" fill="white"/>
<path d="M33.0846 12.1242C32.2627 12.1242 31.5902 11.9001 31.0671 11.4518C31.777 10.9661 32.5242 10.331 33.3088 9.54639C34.1307 8.76182 34.9713 7.82782 35.8306 6.74437C35.9053 6.74437 35.9427 6.83777 35.9427 7.02457L35.6625 8.64974C35.4757 9.80791 35.1394 10.6859 34.6537 11.2836C34.168 11.844 33.645 12.1242 33.0846 12.1242ZM27.7047 32.5229C26.285 32.5229 25.5752 31.4955 25.5752 29.4407C25.5752 26.3398 26.696 22.2489 28.9376 17.1679C28.9376 17.0184 29.031 16.7382 29.2178 16.3273C29.442 15.9163 29.6101 15.6548 29.7222 15.5427C29.9837 15.2812 30.3386 15.1504 30.7869 15.1504C32.0946 15.1504 32.8044 15.4119 32.9165 15.935C32.3187 16.9064 31.7396 18.0272 31.1792 19.2974C30.6562 20.5677 30.1331 21.9687 29.6101 23.5004C29.0497 25.1443 28.6387 26.5079 28.3772 27.5914C28.1531 28.6375 28.041 29.4781 28.041 30.1132C28.041 31.0472 28.2838 31.5142 28.7695 31.5142C29.1057 31.5142 29.5354 31.3087 30.0584 30.8978C30.4694 30.5615 30.7496 30.3187 30.899 30.1692C31.0858 30.0198 31.254 29.889 31.4034 29.777C31.5528 29.777 31.6276 29.8517 31.6276 30.0011C31.6276 30.4121 31.0858 30.9351 30.0024 31.5703C28.9189 32.2054 28.1531 32.5229 27.7047 32.5229Z" fill="white"/>
<path d="M5.88424 36.3896C4.46455 36.3896 3.69866 35.1568 3.58658 32.691C3.2877 32.7657 2.87674 32.8778 2.3537 33.0272C1.86801 33.214 1.25157 33.4382 0.504363 33.6997C0.168121 33.6997 0 33.4569 0 32.9712C0 31.9251 0.149441 31.2526 0.448323 30.9537C0.821925 30.6922 1.96141 30.3746 3.86679 30.001C4.05359 28.3946 4.42719 26.6013 4.98759 24.6212C5.58536 22.6411 6.35124 20.4742 7.28525 18.1205C9.15326 13.3757 11.2268 9.24743 13.5057 5.73556C15.8221 2.18634 17.6714 0.411728 19.0537 0.411728C19.9504 0.411728 20.847 0.69193 21.7437 1.25233C22.6777 1.81274 23.1447 2.4105 23.1447 3.04562C23.1447 4.24115 22.0986 6.44541 20.0064 9.65839C18.9603 11.2649 17.7835 12.9087 16.4759 14.5899C15.2056 16.2712 13.8046 18.0084 12.2728 19.8017C12.2355 19.9885 12.03 20.3061 11.6564 20.7544C11.2828 21.1653 11.0773 21.4082 11.04 21.4829C10.3675 22.3048 9.91914 22.7158 9.69498 22.7158L9.52686 22.6037C9.52686 22.4543 10.5543 21.0719 12.6091 18.4567C18.4373 10.9473 21.3514 5.94105 21.3514 3.43791C21.3514 2.6907 21.1085 2.3171 20.6229 2.3171C20.0251 2.3171 19.2592 2.95223 18.3252 4.22248C16.9055 6.23993 15.5045 8.4255 14.1222 10.7792C12.7398 13.0955 11.4696 15.4119 10.3114 17.7282C9.1159 20.1566 8.10717 22.3796 7.28525 24.397C6.50068 26.3771 5.9216 28.133 5.548 29.6648C9.88178 28.7682 13.7672 28.3198 17.2044 28.3198C22.7711 28.3198 25.5544 29.6088 25.5544 32.1866C25.5544 32.4855 25.2929 33.1206 24.7698 34.092C24.2842 35.026 23.7238 35.493 23.0886 35.493C23.0139 35.4183 22.9766 35.3622 22.9766 35.3249C23.5743 34.7271 23.9853 34.148 24.2094 33.5876C24.471 33.0646 24.6017 32.7097 24.6017 32.5229C24.6017 30.7669 22.2854 29.889 17.6527 29.889C14.5145 29.889 10.3114 30.6922 5.04363 32.2987C5.04363 33.0459 5.17439 33.8678 5.43592 34.7645C5.66008 35.5117 5.79084 35.96 5.8282 36.1094C5.90292 36.2962 5.9216 36.3896 5.88424 36.3896Z" fill="white"/>
</svg>
