<svg width="265" height="42" viewBox="0 0 265 42" fill="none" xmlns="http://www.w3.org/2000/svg">
<path d="M261.763 13.2641C260.833 13.2641 260.071 13.0102 259.479 12.5025C260.282 11.9525 261.129 11.2332 262.017 10.3447C262.948 9.45618 263.9 8.39844 264.873 7.17146C264.958 7.17146 265 7.27723 265 7.48878L264.683 9.32925C264.471 10.6409 264.09 11.6351 263.54 12.3121C262.99 12.9467 262.398 13.2641 261.763 13.2641ZM255.671 36.3651C254.063 36.3651 253.259 35.2016 253.259 32.8746C253.259 29.3629 254.528 24.73 257.067 18.9759C257.067 18.8066 257.173 18.4893 257.384 18.0239C257.638 17.5585 257.829 17.2623 257.955 17.1354C258.252 16.8392 258.654 16.6911 259.161 16.6911C260.642 16.6911 261.446 16.9873 261.573 17.5796C260.896 18.6797 260.24 19.949 259.606 21.3875C259.013 22.826 258.421 24.4127 257.829 26.1473C257.194 28.009 256.728 29.5533 256.432 30.7803C256.178 31.9649 256.052 32.9169 256.052 33.6362C256.052 34.6939 256.327 35.2228 256.877 35.2228C257.257 35.2228 257.744 34.9901 258.336 34.5247C258.802 34.1439 259.119 33.8689 259.288 33.6996C259.5 33.5304 259.69 33.3823 259.859 33.2554C260.029 33.2554 260.113 33.34 260.113 33.5092C260.113 33.9746 259.5 34.567 258.273 35.2862C257.046 36.0055 256.178 36.3651 255.671 36.3651Z" fill="white"/>
<path d="M246.768 35.9844C244.737 35.9844 243.722 34.292 243.722 30.9072C243.722 28.7494 244.399 25.1954 245.753 20.2452C247.107 15.2526 248.82 10.662 250.894 6.47338C253.009 2.20011 254.871 0.0634669 256.478 0.0634669C257.409 0.0634669 258.34 0.38079 259.271 1.01543C260.202 1.60777 260.667 2.26357 260.667 2.98283C260.667 6.02913 256.182 12.7987 247.213 23.2915C246.874 24.8569 246.599 26.3166 246.388 27.6705C246.218 29.0244 246.134 30.2937 246.134 31.4784C246.134 33.8054 246.641 34.9689 247.657 34.9689L248.672 34.6516C248.884 34.6516 248.99 34.7574 248.99 34.9689C248.99 35.6459 248.249 35.9844 246.768 35.9844ZM247.657 21.6414C255.315 11.6563 259.144 5.37333 259.144 2.79244C259.144 2.28473 258.996 2.03087 258.7 2.03087C257.43 2.03087 255.59 4.29443 253.178 8.82157C250.767 13.3487 248.926 17.622 247.657 21.6414Z" fill="white"/>
<path d="M225.373 35.9209C224.527 35.9209 223.744 35.5401 223.025 34.7786C222.348 33.9747 222.009 32.9592 222.009 31.7323C222.009 30.5053 222.75 28.6013 224.23 26.0205C225.711 23.4819 227.531 21.1972 229.688 19.1663C231.804 17.1777 233.623 16.1835 235.146 16.1835H235.781C237.346 16.1835 238.679 16.5008 239.779 17.1354C240.879 17.7278 241.429 18.5316 241.429 19.5471C241.429 20.0125 241.239 20.2452 240.858 20.2452C240.731 20.2452 240.668 20.1817 240.668 20.0548C239.991 18.4893 238.954 17.7066 237.558 17.7066C235.146 17.7066 232.396 19.6952 229.308 23.6723C226.219 27.5648 224.675 30.5687 224.675 32.6842C224.675 33.4881 224.886 33.8901 225.309 33.8901C227.213 33.8901 231.212 29.5956 237.304 21.0068C237.262 21.0491 237.283 21.0491 237.368 21.0068C237.495 20.9221 237.6 20.8798 237.685 20.8798C237.897 20.8798 238.341 21.0914 239.018 21.5145C239.695 21.8953 240.033 22.2337 240.033 22.5299C240.033 22.5299 239.949 22.678 239.779 22.9742C239.61 23.228 239.399 23.63 239.145 24.18C238.468 25.6185 237.939 27.0359 237.558 28.4321C237.22 29.786 237.05 30.9707 237.05 31.9861C237.05 34.2285 237.6 35.3497 238.7 35.3497L239.335 35.2228L239.462 35.2863C239.462 35.6671 238.933 35.8574 237.875 35.8574C236.86 35.8574 236.014 35.392 235.337 34.4612C234.702 33.4881 234.385 32.1977 234.385 30.5899C234.385 29.0244 234.66 27.2897 235.21 25.3858C235.168 25.5127 235.019 25.7454 234.766 26.0839C234.512 26.4224 234.11 27.0147 233.56 27.8609C230.09 33.2343 227.361 35.9209 225.373 35.9209Z" fill="white"/>
<path d="M208.093 37.5711C206.274 37.5711 204.433 37.2538 202.572 36.6191C200.752 36.0691 199.843 35.3075 199.843 34.3344C199.843 34.2498 199.885 34.2075 199.97 34.2075L200.35 34.3344C201.324 34.9691 202.551 35.2864 204.031 35.2864C207.628 35.2864 210.801 34.419 213.551 32.6843C216.259 30.9919 217.613 29.3419 217.613 27.7341C217.613 26.084 216.534 24.7301 214.376 23.6724C213.191 23.08 212.007 22.6569 210.822 22.4031C209.68 22.1492 208.601 22.0223 207.585 22.0223C205.893 22.0223 204.518 22.255 203.46 22.7204C203.037 22.6781 202.826 22.4031 202.826 21.8954C202.826 21.303 203.27 20.8799 204.158 20.6261L206.189 20.3088C210.886 19.0395 214.545 17.4105 217.169 15.422C219.792 13.3911 221.103 11.1276 221.103 8.63129C221.103 7.40431 220.405 6.41003 219.009 5.64846C217.613 4.88688 215.497 4.5061 212.663 4.5061C209.87 4.5061 207.522 4.75996 205.618 5.26767C204.687 5.47922 203.46 5.83885 201.937 6.34657C200.456 6.81197 198.595 7.42546 196.352 8.18704C192.079 9.62557 189.858 10.3448 189.688 10.3448C188.969 10.3448 188.61 9.83711 188.61 8.82168C188.61 8.35628 188.758 8.06011 189.054 7.93318C197.008 4.75996 204.666 3.17334 212.028 3.17334C220.532 3.17334 224.784 5.24652 224.784 9.39286C224.784 11.593 223.282 13.8142 220.278 16.0566C218.797 17.1567 217.126 18.1087 215.265 18.9125C213.445 19.7164 211.436 20.3934 209.236 20.9434C212.493 21.1973 215.095 22.0223 217.042 23.4185C218.988 24.7724 219.961 26.6341 219.961 29.0034C219.961 31.2881 218.776 33.2978 216.407 35.0325C214.08 36.7249 211.309 37.5711 208.093 37.5711ZM194.448 41.5694C193.729 41.5694 193.094 40.9982 192.544 39.8558C192.037 38.7135 191.783 37.3807 191.783 35.8576C191.783 30.315 194.85 22.3819 200.985 12.0584C202.762 8.71591 203.947 7.04468 204.539 7.04468C205.131 7.04468 205.766 7.19276 206.443 7.48893C207.12 7.74279 207.459 7.99664 207.459 8.2505C207.459 8.29281 207.437 8.35628 207.395 8.4409C198.256 21.6838 193.687 31.4785 193.687 37.825C193.687 38.6288 193.856 39.4116 194.194 40.1731C194.533 40.9347 194.744 41.3155 194.829 41.3155C194.744 41.4847 194.618 41.5694 194.448 41.5694Z" fill="white"/>
<path d="M161.744 37.7614C161.49 37.7614 161.258 37.6557 161.046 37.4441C158.804 35.0748 157.682 33.7843 157.682 33.5728C157.682 33.3189 157.809 33.192 158.063 33.192H158.19C159.333 32.4727 160.284 31.8381 161.046 31.2881C161.427 29.8495 161.935 28.1995 162.569 26.3378C163.246 24.4762 164.008 22.5723 164.854 20.626L168.471 12.3122C169.275 10.4506 169.889 8.86395 170.312 7.55235C170.777 6.19844 171.01 5.09839 171.01 4.25219C171.01 3.32138 170.608 2.85598 169.804 2.85598L167.583 3.30023C167.371 3.30023 167.266 3.1733 167.266 2.91944C167.266 2.2848 168.069 1.96747 169.677 1.96747C171.285 1.96747 172.491 2.26364 173.295 2.85598C174.099 3.406 174.501 4.16758 174.501 5.1407C174.501 6.0292 173.549 8.4197 171.645 12.3122L167.9 19.9914L164.156 28.6226C165.89 27.0994 167.604 25.3224 169.296 23.2915C171.031 21.2184 172.322 19.5683 173.168 18.3413C174.056 17.072 174.564 16.4374 174.691 16.4374H175.008C176.531 16.4374 177.293 16.7124 177.293 17.2624C177.293 17.2201 177.272 17.2201 177.229 17.2624C177.229 17.2624 177.251 17.2836 177.293 17.3259V17.2624C177.251 17.1778 177.145 17.3047 176.976 17.6432C176.383 18.7009 175.812 19.8856 175.262 21.1972C174.754 22.5088 174.268 23.9262 173.802 25.4493C172.872 28.411 172.406 30.3996 172.406 31.415C172.406 33.9959 172.85 35.2863 173.739 35.2863C174.035 35.2863 174.649 34.8844 175.579 34.0805C175.706 34.0805 175.77 34.2497 175.77 34.5882C175.77 35.6883 175.156 36.2383 173.929 36.2383C172.745 36.2383 171.772 35.6248 171.01 34.3978C170.248 33.1709 169.868 31.7535 169.868 30.1457C169.868 28.411 170.27 26.4648 171.073 24.307C169.72 25.7032 168.366 26.9936 167.012 28.1783C165.7 29.3207 164.431 30.3784 163.204 31.3515C162.358 33.7632 161.935 35.3921 161.935 36.2383V36.5556C162.315 36.8095 162.506 37.021 162.506 37.1903C162.506 37.5711 162.252 37.7614 161.744 37.7614ZM160.538 35.794C160.538 35.7094 160.517 35.5825 160.475 35.4133C160.475 35.2863 160.475 35.1383 160.475 34.969C160.475 34.5459 160.538 33.9324 160.665 33.1285C160.2 33.3824 159.819 33.5728 159.523 33.6997C159.227 33.8267 159.036 33.9113 158.952 33.9536C159.163 34.2497 159.396 34.5671 159.65 34.9055C159.904 35.2017 160.2 35.4979 160.538 35.794Z" fill="white"/>
<path d="M150.693 36.8728C149.636 36.8728 148.705 36.6825 147.901 36.3017C147.139 35.9209 146.759 35.5613 146.759 35.2228C151.624 34.2073 154.057 32.9804 154.057 31.5418C154.057 31.2457 153.486 30.5899 152.344 29.5744C150.143 27.6282 149.043 25.4492 149.043 23.0376C149.043 21.3029 150.122 19.5893 152.28 17.897C154.522 16.12 156.553 15.2315 158.373 15.2315C158.669 15.2315 159.261 15.6757 160.15 16.5642C161.038 17.4527 161.482 18.0239 161.482 18.2778C161.482 18.4893 161.377 18.5951 161.165 18.5951C160.7 18.5105 160.319 18.447 160.023 18.4047C159.727 18.3201 159.515 18.2778 159.388 18.2778C157.484 18.2778 155.517 18.9759 153.486 20.3721C151.497 21.7683 150.503 23.1857 150.503 24.6242C150.503 24.8781 151.497 26.1685 153.486 28.4955C155.474 30.7379 156.469 32.2822 156.469 33.1284C156.469 33.9746 155.876 34.7997 154.692 35.6036C154.057 36.0267 153.38 36.344 152.661 36.5555C151.984 36.7671 151.328 36.8728 150.693 36.8728Z" fill="white"/>
<path d="M130.424 35.9209C129.578 35.9209 128.795 35.5401 128.076 34.7786C127.399 33.9747 127.06 32.9592 127.06 31.7323C127.06 30.5053 127.801 28.6013 129.282 26.0205C130.763 23.4819 132.582 21.1972 134.74 19.1663C136.855 17.1777 138.674 16.1835 140.198 16.1835H140.832C142.398 16.1835 143.73 16.5008 144.83 17.1354C145.931 17.7278 146.481 18.5316 146.481 19.5471C146.481 20.0125 146.29 20.2452 145.909 20.2452C145.782 20.2452 145.719 20.1817 145.719 20.0548C145.042 18.4893 144.005 17.7066 142.609 17.7066C140.198 17.7066 137.447 19.6952 134.359 23.6723C131.27 27.5648 129.726 30.5687 129.726 32.6842C129.726 33.4881 129.937 33.8901 130.361 33.8901C132.264 33.8901 136.263 29.5956 142.355 21.0068C142.313 21.0491 142.334 21.0491 142.419 21.0068C142.546 20.9221 142.652 20.8798 142.736 20.8798C142.948 20.8798 143.392 21.0914 144.069 21.5145C144.746 21.8953 145.084 22.2337 145.084 22.5299C145.084 22.5299 145 22.678 144.83 22.9742C144.661 23.228 144.45 23.63 144.196 24.18C143.519 25.6185 142.99 27.0359 142.609 28.4321C142.271 29.786 142.101 30.9707 142.101 31.9861C142.101 34.2285 142.652 35.3497 143.752 35.3497L144.386 35.2228L144.513 35.2863C144.513 35.6671 143.984 35.8574 142.927 35.8574C141.911 35.8574 141.065 35.392 140.388 34.4612C139.753 33.4881 139.436 32.1977 139.436 30.5899C139.436 29.0244 139.711 27.2897 140.261 25.3858C140.219 25.5127 140.071 25.7454 139.817 26.0839C139.563 26.4224 139.161 27.0147 138.611 27.8609C135.142 33.2343 132.413 35.9209 130.424 35.9209Z" fill="white"/>
<path d="M86.3306 40.1094C85.0613 40.1094 83.9824 39.5594 83.0939 38.4594C82.2477 37.3593 81.8246 36.0689 81.8246 34.588C81.8246 31.3302 83.5381 27.2684 86.9652 22.4028C88.6999 19.9489 90.5192 17.6642 92.4232 15.5487C94.3271 13.4332 96.3368 11.4869 98.4523 9.70994C102.726 6.15592 105.983 4.37892 108.226 4.37892C108.987 4.37892 109.368 4.61162 109.368 5.07703C109.368 5.24626 109.262 5.37319 109.051 5.45781C106.385 6.81172 103.889 8.50411 101.562 10.535C100.377 11.5504 99.1081 12.7562 97.7542 14.1525C96.4426 15.5487 95.0041 17.1141 93.4386 18.8488C90.35 22.3182 87.9384 25.6184 86.2037 28.7493C84.5113 31.8802 83.6651 34.3342 83.6651 36.1112C83.6651 37.7189 84.3209 38.5228 85.6325 38.5228C86.7325 38.5228 87.748 38.3324 88.6788 37.9516C89.525 37.6555 91.1539 36.4285 93.5655 34.2707C94.7925 33.213 96.358 31.711 98.2619 29.7647C100.208 27.7762 102.493 25.3434 105.116 22.4663C110.362 16.7122 113.303 13.8351 113.938 13.8351C114.572 13.8351 114.89 14.089 114.89 14.5967C114.636 18.4469 114.509 21.3239 114.509 23.2279C114.509 31.3936 115.461 35.4765 117.365 35.4765C119.269 35.4765 120.961 33.5937 122.442 29.8282C123.923 26.0203 124.663 22.4451 124.663 19.1027C124.663 13.9832 123.352 11.0004 120.728 10.1542C120.601 10.0696 120.538 10.0061 120.538 9.96379C120.538 9.5407 121.215 9.32915 122.569 9.32915C123.923 9.32915 125.023 10.2177 125.869 11.9947C126.715 13.7294 127.138 16.0775 127.138 19.0392C127.138 23.7356 126.186 27.8396 124.282 31.3513C122.378 34.8207 119.967 36.5554 117.047 36.5554C113.578 36.5554 111.843 33.0014 111.843 25.8934C111.843 23.1433 112.097 19.9066 112.605 16.1833C112.013 16.7757 111.039 17.8757 109.686 19.4835C108.332 21.0912 106.533 23.2067 104.291 25.8299C102.133 28.4108 100.166 30.6109 98.3888 32.4302C96.6541 34.2495 95.1098 35.7092 93.7559 36.8093C91.0481 39.0094 88.573 40.1094 86.3306 40.1094Z" fill="white"/>
<path d="M71.3911 36.1113C67.7948 36.1113 65.9966 34.4401 65.9966 31.0976C65.9966 28.5167 67.2659 25.3858 69.8045 21.7049C72.4277 18.0239 74.924 16.1835 77.2933 16.1835C78.3087 16.1835 79.1972 16.5219 79.9588 17.1989C80.7627 17.8335 81.1646 18.6163 81.1646 19.5471C81.1646 21.1125 80.1704 22.6991 78.1818 24.3069C76.2356 25.8724 74.3105 26.6551 72.4065 26.6551C72.0257 26.6551 71.8354 26.5705 71.8354 26.4012L72.0257 26.0839C76.8914 24.5608 79.3242 22.0645 79.3242 18.5951C79.3242 18.0874 79.1549 17.8335 78.8165 17.8335C78.351 17.8335 77.5049 18.3201 76.2779 19.2932C75.2201 20.1394 74.2258 21.1125 73.295 22.2126C72.4065 23.3126 71.6026 24.455 70.8834 25.6397C69.3602 28.2206 68.5987 30.3784 68.5987 32.113C68.5987 33.8054 69.2545 34.6516 70.5661 34.6516C72.0892 34.6516 73.7604 33.8689 75.5798 32.3034C76.1721 31.7534 76.8067 31.1399 77.4837 30.463C78.1606 29.7437 78.9011 28.961 79.7049 28.1148C81.2704 26.4224 82.0954 25.5762 82.1801 25.5762C82.4339 25.5762 82.5609 25.682 82.5609 25.8935C82.5609 26.0628 82.5185 26.232 82.4339 26.4012C77.9914 32.8746 74.3105 36.1113 71.3911 36.1113Z" fill="white"/>
<path d="M41.0412 35.5401C40.6181 35.5401 40.1739 35.4343 39.7085 35.2228C39.2431 35.0112 39.0104 34.7574 39.0104 34.4612C39.0104 33.7419 39.7085 31.2033 41.1047 26.8454C42.5009 22.4452 43.199 19.1451 43.199 16.945C43.199 16.268 42.9029 15.8872 42.3105 15.8026C41.7182 15.718 41.422 15.5911 41.422 15.4218C41.422 15.041 41.7394 14.8507 42.374 14.8507C45.2087 14.8507 46.6261 16.0142 46.6261 18.3412C46.6261 19.4836 46.1396 21.451 45.1664 24.2434L46.6261 21.7683C47.6416 20.0336 48.657 18.6797 49.6724 17.7066C50.6878 16.6911 51.8091 16.1834 53.036 16.1834H53.163C55.1092 16.1834 56.0823 17.495 56.0823 20.1182C56.0823 21.1759 55.8919 22.551 55.5112 24.2434C55.1304 25.9358 54.538 27.9455 53.7341 30.2725L62.4288 20.8798C63.0211 20.5413 63.7827 20.3721 64.7135 20.3721C65.6866 20.3721 66.1732 20.5625 66.1732 20.9432C64.4808 25.5127 63.6346 28.8552 63.6346 30.9706C63.6346 32.9592 63.9942 33.9535 64.7135 33.9535L65.1578 32.5572C65.2847 32.8534 65.3481 33.2977 65.3481 33.89C65.3481 34.9901 65.0097 35.5401 64.3327 35.5401C62.1326 35.5401 61.0326 33.6361 61.0326 29.8283C61.0326 28.8975 61.096 27.8397 61.223 26.655C61.3922 25.4704 61.6249 24.1588 61.9211 22.7202C61.371 23.2703 60.8633 23.8415 60.3979 24.4338C59.9748 24.9838 59.5094 25.6185 59.0017 26.3377L55.7015 30.9706C53.8822 33.5515 52.761 34.842 52.3379 34.842C50.8994 34.842 50.1801 34.5881 50.1801 34.0804C50.1801 34.0381 50.4128 33.0438 50.8782 31.0976C52.3591 25.5127 53.0995 21.7683 53.0995 19.8643C53.0995 18.9758 52.8245 18.5316 52.2745 18.5316C50.709 18.5316 48.5935 20.8375 45.928 25.4492C45.4626 26.2954 44.9337 27.3109 44.3414 28.4955C43.7914 29.6379 43.2837 30.7379 42.8183 31.7957C42.7336 32.0495 42.5432 32.4726 42.2471 33.065C41.9932 33.6573 41.7394 34.2285 41.4855 34.7785C41.2316 35.2862 41.0836 35.5401 41.0412 35.5401Z" fill="white"/>
<path d="M37.4684 13.2641C36.5376 13.2641 35.776 13.0102 35.1837 12.5025C35.9875 11.9525 36.8337 11.2332 37.7222 10.3447C38.6531 9.45618 39.605 8.39844 40.5781 7.17146C40.6628 7.17146 40.7051 7.27723 40.7051 7.48878L40.3877 9.32925C40.1762 10.6409 39.7954 11.6351 39.2454 12.3121C38.6954 12.9467 38.103 13.2641 37.4684 13.2641ZM31.3758 36.3651C29.768 36.3651 28.9641 35.2016 28.9641 32.8746C28.9641 29.3629 30.2334 24.73 32.772 18.9759C32.772 18.8066 32.8778 18.4893 33.0893 18.0239C33.3432 17.5585 33.5336 17.2623 33.6605 17.1354C33.9567 16.8392 34.3586 16.6911 34.8663 16.6911C36.3472 16.6911 37.1511 16.9873 37.278 17.5796C36.601 18.6797 35.9452 19.949 35.3106 21.3875C34.7182 22.826 34.1259 24.4127 33.5336 26.1473C32.8989 28.009 32.4335 29.5533 32.1374 30.7803C31.8835 31.9649 31.7566 32.9169 31.7566 33.6362C31.7566 34.6939 32.0316 35.2228 32.5816 35.2228C32.9624 35.2228 33.449 34.9901 34.0413 34.5247C34.5067 34.1439 34.824 33.8689 34.9933 33.6996C35.2048 33.5304 35.3952 33.3823 35.5644 33.2554C35.7337 33.2554 35.8183 33.34 35.8183 33.5092C35.8183 33.9746 35.2048 34.567 33.9778 35.2862C32.7509 36.0055 31.8835 36.3651 31.3758 36.3651Z" fill="white"/>
<path d="M6.66377 40.7442C5.056 40.7442 4.18866 39.348 4.06173 36.5556C3.72325 36.6402 3.25784 36.7671 2.66551 36.9363C2.11548 37.1479 1.41737 37.4017 0.571181 37.6979C0.190394 37.6979 0 37.4229 0 36.8729C0 35.6882 0.169239 34.9266 0.507716 34.5882C0.930813 34.292 2.22126 33.9324 4.37905 33.5093C4.5906 31.6899 5.0137 29.6591 5.64834 27.4167C6.32529 25.1742 7.19264 22.7203 8.25039 20.0548C10.3659 14.6815 12.7141 10.0062 15.2949 6.02913C17.9181 2.00971 20.0125 0 21.5779 0C22.5934 0 23.6088 0.317323 24.6242 0.951967C25.682 1.58661 26.2108 2.26357 26.2108 2.98283C26.2108 4.33674 25.0262 6.83301 22.6568 10.4716C21.4722 12.291 20.1394 14.1526 18.6586 16.0565C17.22 17.9605 15.6334 19.9279 13.8987 21.9587C13.8564 22.1703 13.6237 22.5299 13.2006 23.0376C12.7775 23.503 12.5448 23.778 12.5025 23.8627C11.7409 24.7935 11.2332 25.2589 10.9794 25.2589L10.789 25.1319C10.789 24.9627 11.9525 23.3972 14.2795 20.4356C20.8798 11.9313 24.18 6.26183 24.18 3.42708C24.18 2.58089 23.905 2.15779 23.3549 2.15779C22.678 2.15779 21.8106 2.87706 20.7529 4.31559C19.1451 6.60031 17.5585 9.07542 15.9931 11.7409C14.4276 14.3641 12.9891 16.9873 11.6775 19.6105C10.3236 22.3607 9.1812 24.8781 8.25039 27.1628C7.36188 29.4052 6.70608 31.3938 6.28299 33.1285C11.1909 32.113 15.5911 31.6053 19.4836 31.6053C25.7877 31.6053 28.9398 33.065 28.9398 35.9844C28.9398 36.3228 28.6436 37.0421 28.0513 38.1422C27.5013 39.1999 26.8666 39.7288 26.1474 39.7288C26.0628 39.6442 26.0204 39.5807 26.0204 39.5384C26.6974 38.8614 27.1628 38.2056 27.4167 37.571C27.7128 36.9786 27.8609 36.5767 27.8609 36.3652C27.8609 34.3766 25.2377 33.3823 19.9913 33.3823C16.4373 33.3823 11.6775 34.292 5.7118 36.1113C5.7118 36.9575 5.85989 37.8883 6.15606 38.9037C6.40991 39.7499 6.558 40.2576 6.60031 40.4269C6.68493 40.6384 6.70608 40.7442 6.66377 40.7442Z" fill="white"/>
</svg>
